<svg width="35" height="35" xmlns="http://www.w3.org/2000/svg" xmlns:xlink="http://www.w3.org/1999/xlink" xml:space="preserve" overflow="hidden"><g transform="translate(-274 -210)"><path d="M304.724 210C307.084 210 309 211.916 309 214.276L309 240.724C309 243.084 307.084 245 304.724 245L278.276 245C275.916 245 274 243.084 274 240.724L274 214.276C274 211.916 275.916 210 278.276 210L304.724 210ZM291.5 215.537C288.251 215.537 287.844 215.551 286.568 215.609 285.294 215.667 284.425 215.869 283.664 216.165 282.877 216.471 282.21 216.88 281.545 217.545 280.88 218.21 280.471 218.877 280.165 219.664 279.869 220.425 279.667 221.294 279.609 222.568 279.551 223.844 279.537 224.251 279.537 227.5 279.537 230.749 279.551 231.156 279.609 232.432 279.667 233.706 279.869 234.575 280.165 235.336 280.471 236.123 280.88 236.79 281.545 237.455 282.21 238.12 282.877 238.529 283.664 238.835 284.425 239.131 285.294 239.333 286.568 239.391 287.844 239.449 288.251 239.463 291.5 239.463 294.749 239.463 295.156 239.449 296.432 239.391 297.706 239.333 298.575 239.131 299.336 238.835 300.123 238.529 300.79 238.12 301.455 237.455 302.12 236.79 302.529 236.123 302.835 235.336 303.131 234.575 303.333 233.706 303.391 232.432 303.449 231.156 303.463 230.749 303.463 227.5 303.463 224.251 303.449 223.844 303.391 222.568 303.333 221.294 303.131 220.425 302.835 219.664 302.529 218.877 302.12 218.21 301.455 217.545 300.79 216.88 300.123 216.471 299.336 216.165 298.575 215.869 297.706 215.667 296.432 215.609 295.156 215.551 294.749 215.537 291.5 215.537ZM291.5 217.693C294.694 217.693 295.073 217.705 296.334 217.762 297.5 217.816 298.134 218.01 298.555 218.174 299.114 218.391 299.512 218.651 299.931 219.069 300.35 219.488 300.609 219.886 300.826 220.445 300.99 220.866 301.184 221.5 301.238 222.666 301.295 223.927 301.307 224.306 301.307 227.5 301.307 230.694 301.295 231.073 301.238 232.334 301.184 233.5 300.99 234.134 300.826 234.555 300.609 235.114 300.35 235.512 299.931 235.931 299.512 236.35 299.114 236.609 298.555 236.826 298.134 236.99 297.5 237.184 296.334 237.238 295.073 237.295 294.694 237.307 291.5 237.307 288.306 237.307 287.927 237.295 286.666 237.238 285.5 237.184 284.866 236.99 284.445 236.826 283.886 236.609 283.488 236.35 283.069 235.931 282.65 235.512 282.391 235.114 282.174 234.555 282.01 234.134 281.816 233.5 281.762 232.334 281.705 231.073 281.693 230.694 281.693 227.5 281.693 224.306 281.705 223.927 281.762 222.666 281.816 221.5 282.01 220.866 282.174 220.445 282.391 219.886 282.65 219.488 283.069 219.069 283.488 218.651 283.886 218.391 284.445 218.174 284.866 218.01 285.5 217.816 286.666 217.762 287.927 217.705 288.306 217.693 291.5 217.693ZM291.5 221.357C288.107 221.357 285.357 224.107 285.357 227.5 285.357 230.893 288.107 233.643 291.5 233.643 294.893 233.643 297.643 230.893 297.643 227.5 297.643 224.107 294.893 221.357 291.5 221.357ZM291.5 231.488C289.298 231.488 287.512 229.702 287.512 227.5 287.512 225.298 289.298 223.512 291.5 223.512 293.702 223.512 295.488 225.298 295.488 227.5 295.488 229.702 293.702 231.488 291.5 231.488ZM299.321 221.114C299.321 221.907 298.679 222.55 297.886 222.55 297.093 222.55 296.45 221.907 296.45 221.114 296.45 220.321 297.093 219.679 297.886 219.679 298.679 219.679 299.321 220.321 299.321 221.114Z" fill="#44546A" fill-rule="evenodd"/></g></svg>