<svg width="36" height="36" xmlns="http://www.w3.org/2000/svg" xmlns:xlink="http://www.w3.org/1999/xlink" xml:space="preserve" overflow="hidden"><g transform="translate(-234 -210)"><path d="M265.602 210C268.029 210 270 211.971 270 214.398L270 241.602C270 244.029 268.029 246 265.602 246L238.398 246C235.971 246 234 244.029 234 241.602L234 214.398C234 211.971 235.971 210 238.398 210L265.602 210ZM245.282 239.762 245.282 223.891 240.006 223.891 240.006 239.762 245.282 239.762ZM264.305 239.762 264.305 230.661C264.305 225.786 261.702 223.518 258.231 223.518 255.432 223.518 254.179 225.057 253.477 226.138L253.477 223.891 248.202 223.891C248.272 225.38 248.202 239.762 248.202 239.762L253.477 239.762 253.477 230.898C253.477 230.424 253.511 229.95 253.651 229.611 254.031 228.663 254.9 227.682 256.357 227.682 258.265 227.682 259.03 229.138 259.03 231.27L259.03 239.762 264.305 239.762ZM242.68 216.238C240.875 216.238 239.695 217.425 239.695 218.981 239.695 220.503 240.839 221.723 242.61 221.723L242.644 221.723C244.484 221.723 245.629 220.503 245.629 218.981 245.595 217.427 244.487 216.242 242.68 216.238Z" fill="#44546A" fill-rule="evenodd"/></g></svg>